HIERARCHY
ROOT Hips
{
	OFFSET 0.000000 0.000000 0.000000
	CHANNELS 6 Xposition Yposition Zposition Zrotation Yrotation Xrotation 
	JOINT LHipJoint
	{
		OFFSET 0.000000 0.000000 0.000000
		CHANNELS 3 Zrotation Yrotation Xrotation
		JOINT LeftUpLeg
		{
			OFFSET 1.363060 -1.794630 0.839290
			CHANNELS 3 Zrotation Yrotation Xrotation
			JOINT LeftLeg
			{
				OFFSET 2.448110 -6.726130 0.000000
				CHANNELS 3 Zrotation Yrotation Xrotation
				JOINT LeftFoot
				{
					OFFSET 2.562200 -7.039590 0.000000
					CHANNELS 3 Zrotation Yrotation Xrotation
					JOINT LeftToeBase
					{
						OFFSET 0.157640 -0.433110 2.322550
						CHANNELS 3 Zrotation Yrotation Xrotation
						End Site
						{
							OFFSET 0.000000 0.000000 0.000000
						}
					}
				}
			}
		}
	}
	JOINT RHipJoint
	{
		OFFSET 0.000000 0.000000 0.000000
		CHANNELS 3 Zrotation Yrotation Xrotation
		JOINT RightUpLeg
		{
			OFFSET -1.305520 -1.794630 0.839290
			CHANNELS 3 Zrotation Yrotation Xrotation
			JOINT RightLeg
			{
				OFFSET -2.542530 -6.985550 0.000000
				CHANNELS 3 Zrotation Yrotation Xrotation
				JOINT RightFoot
				{
					OFFSET -2.568260 -7.056230 0.000000
					CHANNELS 3 Zrotation Yrotation Xrotation
					JOINT RightToeBase
					{
						OFFSET -0.164730 -0.452590 2.363150
						CHANNELS 3 Zrotation Yrotation Xrotation
						End Site
						{
							OFFSET 0.000000 0.000000 0.000000
						}
					}
				}
			}
		}
	}
	JOINT LowerBack
	{
		OFFSET 0.000000 0.000000 0.000000
		CHANNELS 3 Zrotation Yrotation Xrotation
		JOINT Spine
		{
			OFFSET 0.028270 2.035590 -0.193380
			CHANNELS 3 Zrotation Yrotation Xrotation
			JOINT Spine1
			{
				OFFSET 0.056720 2.048850 -0.042750
				CHANNELS 3 Zrotation Yrotation Xrotation
				JOINT Neck
				{
					OFFSET 0.000000 0.000000 0.000000
					CHANNELS 3 Zrotation Yrotation Xrotation
					JOINT Neck1
					{
						OFFSET -0.054170 1.746240 0.172020
						CHANNELS 3 Zrotation Yrotation Xrotation
						JOINT Head
						{
							OFFSET 0.104070 1.761360 -0.123970
							CHANNELS 3 Zrotation Yrotation Xrotation
							End Site
							{
								OFFSET 0.000000 0.000000 0.000000
							}
						}
					}
				}
				JOINT LeftShoulder
				{
					OFFSET 0.000000 0.000000 0.000000
					CHANNELS 3 Zrotation Yrotation Xrotation
					JOINT LeftArm
					{
						OFFSET 3.362410 1.200890 -0.311210
						CHANNELS 3 Zrotation Yrotation Xrotation
						JOINT LeftForeArm
						{
							OFFSET 4.983000 -0.000000 -0.000000
							CHANNELS 3 Zrotation Yrotation Xrotation
							JOINT LeftHand
							{
								OFFSET 3.483560 -0.000000 -0.000000
								CHANNELS 3 Zrotation Yrotation Xrotation
								JOINT LeftFingerBase
								{
									OFFSET 0.000000 0.000000 0.000000
									CHANNELS 3 Zrotation Yrotation Xrotation
									JOINT LeftHandIndex1
									{
										OFFSET 0.715260 -0.000000 -0.000000
										CHANNELS 3 Zrotation Yrotation Xrotation
										End Site
										{
											OFFSET 0.000000 0.000000 0.000000
										}
									}
								}
								JOINT LThumb
								{
									OFFSET 0.000000 0.000000 0.000000
									CHANNELS 3 Zrotation Yrotation Xrotation
									End Site
									{
										OFFSET 0.000000 0.000000 0.000000
									}
								}
							}
						}
					}
				}
				JOINT RightShoulder
				{
					OFFSET 0.000000 0.000000 0.000000
					CHANNELS 3 Zrotation Yrotation Xrotation
					JOINT RightArm
					{
						OFFSET -3.136600 1.374050 -0.404650
						CHANNELS 3 Zrotation Yrotation Xrotation
						JOINT RightForeArm
						{
							OFFSET -5.241900 -0.000000 -0.000000
							CHANNELS 3 Zrotation Yrotation Xrotation
							JOINT RightHand
							{
								OFFSET -3.444170 -0.000000 -0.000000
								CHANNELS 3 Zrotation Yrotation Xrotation
								JOINT RightFingerBase
								{
									OFFSET 0.000000 0.000000 0.000000
									CHANNELS 3 Zrotation Yrotation Xrotation
									JOINT RightHandIndex1
									{
										OFFSET -0.622530 -0.000000 -0.000000
										CHANNELS 3 Zrotation Yrotation Xrotation
										End Site
										{
											OFFSET 0.000000 0.000000 0.000000
										}
									}
								}
								JOINT RThumb
								{
									OFFSET 0.000000 0.000000 0.000000
									CHANNELS 3 Zrotation Yrotation Xrotation
									End Site
									{
										OFFSET 0.000000 0.000000 0.000000
									}
								}
							}
						}
					}
				}
			}
		}
	}
}
MOTION
Frames: 6
Frame Time: 0.008333
-21.518760 16.802281 -0.432987 29.510062 85.723764 42.718568 -8.900649 0.721309 4.434564 -12.438600 -1.936615 -42.147152 -2.183656 0.255512 22.284684 0.785077 5.367678 2.353116 1.453900 0.000000 -21.192900 11.070837 -5.163087 1.509222 2.674655 -5.708212 5.180820 1.302636 -1.393045 17.476320 0.026808 1.964900 5.757826 0.249800 0.000000 -74.823999 -8.977549 0.598439 -7.902276 -2.402050 1.182534 -4.121491 -4.127702 1.068934 1.720552 6.363062 -6.462350 -9.445755 -1.603475 -0.095243 -0.520590 0.000000 0.000000 0.000000 -0.650550 18.959532 3.270749 -49.647875 17.214227 26.825094 -4.111037 -33.613187 -0.018310 -4.455610 4.355514 -0.168191 -0.137419 -0.106982 -0.000000 0.000000 0.000000 0.000000 0.000000 0.000000 0.000000 5.221918 -0.096143 1.179781 38.643753 59.324888 30.491153 0.241360 88.568163 0.014154 3.373573 5.986396 0.200225 -0.150813 -0.521034 0.000000 0.000000 0.000000 0.000000 0.000000 0.000000 0.000000 
-21.370146 16.833825 -0.454765 30.011682 85.569258 43.026022 -8.853459 0.821462 4.404473 -12.793896 -1.703768 -41.292023 -2.231951 0.215098 22.270152 0.788136 5.299245 1.669077 1.357100 0.000000 -20.925500 11.246895 -5.228762 1.495480 2.069670 -6.176050 4.118931 1.095552 -1.627634 19.885220 -0.002586 2.214505 7.662029 0.413300 0.000000 -76.426500 -9.157061 0.616030 -7.937415 -2.469663 1.222630 -4.131834 -4.255725 1.115895 1.725856 6.614105 -6.263764 -9.381966 -1.704104 -0.103874 -0.508234 0.000000 0.000000 0.000000 -1.044722 18.694877 3.277617 -49.546958 15.705058 26.719601 -4.134111 -32.846206 -0.017408 -4.085701 4.366913 -0.153868 -0.139474 -0.102013 -0.000000 0.000000 0.000000 0.000000 0.000000 0.000000 0.000000 5.752749 0.255874 1.274915 41.271099 57.699694 32.417159 0.249866 87.833282 0.014776 3.241125 6.082983 0.194169 -0.129520 -0.511958 0.000000 0.000000 0.000000 0.000000 0.000000 0.000000 0.000000 
-21.225318 16.865435 -0.477793 30.326585 85.386497 43.157373 -8.813050 0.918586 4.377561 -13.126150 -1.492434 -40.387880 -2.280855 0.164807 22.128091 0.798843 5.281905 1.021862 1.274000 0.000000 -20.648900 11.418409 -5.266277 1.469852 1.471678 -6.667439 2.926920 0.870859 -1.849501 22.452807 -0.065472 2.381662 9.675911 0.588300 0.000000 -77.525599 -9.307849 0.642804 -7.954513 -2.532353 1.269465 -4.149404 -4.395587 1.168936 1.690352 6.848698 -6.046698 -9.299936 -1.809057 -0.113117 -0.490825 0.000000 0.000000 0.000000 -1.439339 18.388513 3.290841 -49.469106 14.173975 26.639103 -4.157220 -32.097968 -0.016589 -3.724835 4.395623 -0.140344 -0.141478 -0.096529 -0.000000 0.000000 0.000000 0.000000 0.000000 0.000000 0.000000 6.266816 0.632333 1.326752 43.879106 55.905724 34.198102 0.271909 86.935191 0.015166 3.080888 6.229033 0.187717 -0.108320 -0.503524 0.000000 0.000000 0.000000 0.000000 0.000000 0.000000 0.000000 
-21.084358 16.896715 -0.501838 30.491653 85.184953 43.152219 -8.778537 1.011025 4.352119 -13.435119 -1.303800 -39.453817 -2.328532 0.107251 21.879414 0.816363 5.313523 0.425569 1.204500 -0.000000 -20.356200 11.583545 -5.271792 1.435047 0.900267 -7.158415 1.628978 0.633475 -2.052584 25.138028 -0.166600 2.416241 11.786622 0.751600 0.000001 -78.013800 -9.428254 0.674073 -7.952273 -2.589145 1.317961 -4.171613 -4.545417 1.222763 1.621075 7.069423 -5.822070 -9.209123 -1.915609 -0.122575 -0.471065 0.000000 0.000000 0.000000 -1.818493 18.077827 3.310464 -49.427240 12.578065 26.612780 -4.179788 -31.361287 -0.015838 -3.371769 4.434275 -0.127320 -0.143486 -0.090404 -0.000000 0.000000 0.000000 0.000000 0.000000 0.000000 0.000000 6.763255 1.012776 1.331546 46.441665 53.977765 35.808335 0.308731 85.853573 0.015335 2.891211 6.425076 0.180368 -0.087863 -0.495801 -0.000000 0.000000 0.000000 0.000000 0.000000 0.000000 0.000000 
-20.947147 16.927350 -0.526590 30.584138 84.975214 43.087190 -8.745942 1.098787 4.327020 -13.725367 -1.141513 -38.500055 -2.374128 0.044354 21.542642 0.839518 5.390079 -0.111388 1.147600 0.000000 -20.046000 11.744244 -5.242463 1.392293 0.364553 -7.637857 0.250705 0.391211 -2.232536 27.901642 -0.306645 2.283451 13.961024 0.875300 0.000001 -77.803200 -9.520513 0.704965 -7.929155 -2.639968 1.363208 -4.198136 -4.703010 1.272217 1.516212 7.278469 -5.594928 -9.108221 -2.022099 -0.132134 -0.448518 0.000000 0.000000 0.000000 -2.169336 17.739623 3.335090 -49.439798 10.959989 26.595886 -4.201365 -30.660623 -0.015157 -3.030349 4.479377 -0.114693 -0.145444 -0.083631 -0.000000 0.000000 0.000000 0.000000 0.000000 0.000000 0.000000 7.243292 1.385438 1.294999 48.937344 51.939783 37.227213 0.360349 84.572694 0.015293 2.674595 6.668240 0.171916 -0.068651 -0.488767 -0.000000 0.000000 0.000000 0.000000 0.000000 0.000000 0.000000 
-20.813886 16.957123 -0.551807 30.661516 84.768465 43.016767 -8.712805 1.181469 4.300050 -13.999365 -1.004791 -37.534157 -2.417161 -0.021747 21.138270 0.866338 5.500472 -0.588309 1.100900 0.000000 -19.720800 11.900146 -5.176850 1.341487 -0.125271 -8.096467 -1.180042 0.154238 -2.387470 30.704105 -0.482640 1.954781 16.142927 0.925801 0.000000 -76.848300 -9.586273 0.730692 -7.881366 -2.684372 1.400477 -4.224222 -4.864642 1.312537 1.389165 7.480573 -5.378411 -9.009318 -2.125524 -0.141333 -0.426701 0.000000 0.000000 0.000000 -2.478903 17.417461 3.363326 -49.517809 9.261638 26.625889 -4.221214 -29.984634 -0.014514 -2.693960 4.517580 -0.101865 -0.147432 -0.076156 -0.000000 0.000000 0.000000 0.000000 0.000000 0.000000 0.000000 7.709615 1.728895 1.219217 51.345396 49.837296 38.439805 0.425335 83.081136 0.015020 2.434679 6.951819 0.162056 -0.051247 -0.482127 -0.000000 0.000000 0.000000 0.000000 0.000000 0.000000 0.000000 
